<?xml version="1.0" standalone="no"?>
<!DOCTYPE svg PUBLIC "-//W3C//DTD SVG 20010904//EN"
 "http://www.w3.org/TR/2001/REC-SVG-20010904/DTD/svg10.dtd">
<svg version="1.0" xmlns="http://www.w3.org/2000/svg"
 width="500.000000pt" height="500.000000pt" viewBox="0 0 500.000000 500.000000"
 preserveAspectRatio="xMidYMid meet">
<metadata>
Created by potrace 1.14, written by Peter Selinger 2001-2017
</metadata>
<g transform="translate(0.000000,500.000000) scale(0.100000,-0.100000)"
fill="#000000" stroke="none">
<path d="M0 2500 l0 -2500 2500 0 2500 0 0 2500 0 2500 -2500 0 -2500 0 0
-2500z m3656 1984 c55 -34 97 -89 116 -154 18 -62 19 -716 1 -776 -19 -60 -78
-122 -147 -155 -115 -54 -237 -31 -319 61 -73 80 -72 72 -72 485 0 367 0 370
23 417 26 52 119 144 155 152 12 2 61 3 109 2 76 -2 92 -6 134 -32z m-2028 4
c13 -13 17 -135 4 -155 -4 -6 -38 -15 -77 -20 -91 -11 -95 -18 -95 -185 l0
-127 29 -16 c16 -8 36 -22 46 -31 15 -15 15 -18 0 -34 -9 -10 -30 -24 -46 -30
l-29 -12 -2 -247 -3 -246 -83 -3 c-81 -3 -82 -2 -92 23 -6 15 -10 126 -10 249
l0 222 -40 23 c-22 12 -40 30 -40 39 0 9 18 27 40 40 l40 23 0 143 c0 103 -4
146 -12 153 -7 6 -42 13 -76 17 -35 3 -68 8 -73 12 -10 6 -13 157 -2 167 12
13 508 8 521 -5z m506 -10 c10 -17 187 -1021 186 -1060 0 -4 -7 -14 -16 -22
-20 -20 -156 -23 -172 -3 -6 7 -16 53 -23 102 -15 107 -35 135 -97 135 -63 0
-79 -21 -97 -130 -9 -52 -21 -100 -27 -107 -15 -19 -162 -18 -177 1 -9 11 7
127 74 518 47 276 88 515 91 531 10 51 26 57 139 57 98 0 105 -2 119 -22z
m785 -6 c54 -29 88 -65 112 -117 15 -33 19 -66 19 -194 0 -189 -8 -220 -75
-286 -55 -56 -102 -75 -181 -75 -29 0 -59 -7 -72 -16 -21 -15 -22 -20 -22
-198 0 -128 -4 -186 -12 -194 -7 -7 -41 -12 -83 -12 -42 0 -76 5 -83 12 -9 9
-12 144 -12 544 0 293 3 540 6 549 6 15 26 16 183 13 162 -3 180 -5 220 -26z
m-1211 -64 c7 -7 12 -35 12 -64 0 -75 -20 -96 -99 -102 -34 -2 -65 -10 -69
-16 -4 -6 -9 -62 -12 -124 l-5 -112 -22 15 c-22 15 -23 23 -23 133 0 64 4 122
8 128 4 6 34 14 67 18 95 11 93 10 101 77 7 59 18 71 42 47z m508 4 c19 -12
23 -34 99 -477 20 -115 49 -287 65 -381 36 -204 37 -230 11 -244 -27 -14 -164
-13 -179 2 -26 26 -13 38 41 38 62 0 97 20 97 56 0 25 -157 965 -166 997 -6
18 12 23 32 9z m1652 -482 c2 -197 0 -315 -8 -355 -35 -177 -161 -276 -334
-262 -96 8 -104 23 -14 29 93 7 155 34 217 96 84 84 86 97 86 526 l0 368 25
-53 c25 -53 25 -59 28 -349z m-761 348 c15 -28 18 -58 18 -188 0 -142 -2 -158
-22 -195 -58 -104 -125 -145 -295 -180 l-28 -5 0 -181 c0 -178 0 -180 -25
-204 -20 -21 -34 -25 -83 -25 -57 0 -82 11 -82 37 0 9 15 13 44 13 28 0 52 7
67 19 23 19 24 25 29 199 3 99 8 184 13 188 4 4 39 11 76 15 38 4 83 15 101
24 53 28 112 88 136 140 22 46 24 63 24 213 0 89 2 162 5 162 2 0 12 -15 22
-32z m-1869 -15 c3 -17 -2 -23 -15 -23 -22 0 -43 18 -43 38 0 9 9 12 28 10 19
-2 28 -9 30 -25z m380 -408 c-2 -11 -19 -29 -40 -40 l-38 -20 0 -227 c0 -272
2 -268 -105 -268 -53 0 -66 3 -75 19 -15 30 -14 31 40 31 37 0 55 5 70 20 19
19 20 33 20 253 l0 234 38 25 c35 23 38 24 65 9 18 -10 27 -23 25 -36z m442
-274 c14 -27 13 -31 -9 -31 -33 0 -47 -25 -61 -107 -14 -86 -31 -127 -55 -137
-29 -11 -131 -6 -143 6 -26 26 -13 38 38 38 69 0 94 25 109 112 6 35 11 72 11
82 0 38 19 56 60 56 29 0 42 -5 50 -19z m-400 -495 c49 -25 88 -64 113 -111
21 -37 22 -56 25 -291 l3 -252 -95 -71 -96 -71 -150 0 c-83 0 -150 4 -150 8 0
4 9 36 21 70 l21 62 149 0 149 0 0 132 0 131 -23 -21 c-22 -20 -33 -22 -156
-22 -102 0 -132 3 -128 13 2 6 13 38 23 70 l18 57 133 0 133 0 0 54 c0 44 -5
60 -26 85 l-26 31 -144 0 c-79 0 -144 3 -144 7 0 8 59 102 79 127 14 16 28 18
126 14 81 -3 119 -9 145 -22z m1205 -181 c51 -29 94 -95 102 -154 l5 -39 -120
-91 c-100 -75 -127 -91 -157 -91 -29 0 -35 -4 -35 -21 0 -11 13 -34 29 -50 29
-29 31 -29 141 -29 61 0 110 -3 108 -7 -2 -5 -21 -36 -43 -71 l-40 -62 -91 2
c-81 3 -96 6 -140 33 -30 19 -60 49 -79 79 -29 48 -30 52 -33 201 l-4 152 124
92 c138 103 149 106 233 56z m585 22 c0 -7 -9 -41 -21 -75 l-21 -62 -94 0 -94
0 0 -151 0 -151 29 -29 c28 -28 34 -29 116 -29 48 0 85 -4 83 -8 -1 -5 -21
-37 -43 -71 l-40 -62 -66 3 c-85 4 -150 42 -194 112 -29 48 -30 52 -33 201
l-4 151 123 92 123 92 68 0 c49 0 68 -4 68 -13z m-1392 -132 c-2 -74 0 -135 3
-135 3 0 14 9 24 20 15 17 31 20 92 20 l73 0 0 108 0 107 70 -1 c39 0 70 -4
70 -7 0 -4 0 -135 0 -291 l0 -284 -62 -21 c-34 -12 -66 -21 -70 -21 -4 0 -8
71 -8 157 l0 157 -28 -27 c-25 -24 -36 -27 -98 -27 l-69 0 3 -120 3 -120 -76
0 -75 0 2 292 3 291 50 18 c28 10 60 18 73 18 l23 1 -3 -135z m542 -780 c148
-45 269 -114 374 -214 312 -300 366 -756 131 -1116 -48 -73 -140 -173 -207
-225 -63 -48 -169 -102 -258 -131 -79 -26 -116 -32 -221 -37 -233 -9 -401 43
-584 179 -135 100 -269 300 -310 464 -22 86 -37 231 -28 274 4 20 6 41 4 46
-5 18 21 125 31 125 5 0 6 9 3 21 -6 19 -5 20 15 9 17 -9 20 -17 15 -41 -4
-18 -3 -29 4 -29 11 0 15 16 13 58 -1 12 2 21 6 18 4 -2 8 23 8 57 0 34 -1 54
-3 45 -3 -10 -9 -18 -14 -18 -11 0 -8 -22 4 -31 5 -4 3 -19 -5 -33 -13 -24
-16 -26 -27 -12 -10 12 -8 26 15 75 15 34 31 61 36 61 5 0 6 6 2 13 -6 9 -5 9
8 0 8 -7 18 -10 21 -6 4 3 13 0 22 -7 9 -7 18 -10 22 -6 3 3 1 6 -6 6 -7 0 -9
5 -5 12 4 6 8 23 9 37 2 14 6 35 10 46 5 14 4 16 -3 7 -8 -11 -10 -11 -15 1
-6 15 40 67 59 67 5 0 3 -4 -4 -8 -9 -6 -5 -15 15 -33 l27 -24 -18 29 c-17 26
-17 28 -2 23 10 -4 14 -3 11 2 -3 6 3 14 12 20 15 9 16 12 3 20 -8 5 -18 7
-23 4 -19 -12 0 21 20 34 18 12 21 12 19 0 -1 -15 59 -80 238 -256 58 -57 106
-107 106 -112 0 -5 7 -9 15 -9 9 0 15 -9 15 -22 0 -18 2 -20 10 -8 5 8 12 11
17 7 4 -4 2 -17 -5 -27 -15 -24 -16 -50 -2 -50 6 0 10 11 10 25 0 14 4 25 9
25 6 0 9 -10 9 -22 -1 -13 -1 -78 0 -144 2 -98 5 -123 17 -128 36 -14 44 3 48
102 1 54 4 -18 5 -158 1 -183 5 -259 14 -268 20 -20 58 -14 67 10 l8 22 12
-22 c13 -24 50 -29 69 -10 9 9 13 87 14 278 1 146 4 217 5 158 3 -89 6 -107
21 -113 34 -13 43 22 40 153 -3 122 -4 124 -31 148 -23 19 -39 24 -85 24 l-57
0 34 18 c45 22 59 63 36 99 -9 14 -26 28 -36 30 -18 5 -19 18 -19 251 l0 245
88 -6 c48 -3 112 -13 142 -22z m-843 -270 c-5 -14 -29 -13 -34 2 -3 7 4 11 16
10 12 -1 20 -6 18 -12z m-92 -127 c-2 -18 -3 -37 -4 -42 -1 -6 -7 -4 -13 2
-10 10 -10 15 1 21 8 5 9 11 3 15 -6 3 -14 -6 -19 -21 -7 -20 -11 -23 -15 -12
-7 18 30 82 42 74 4 -3 6 -19 5 -37z"/>
<path d="M3452 4310 c-11 -11 -24 -35 -27 -52 -3 -18 -5 -170 -3 -336 l3 -304
28 -24 c31 -27 54 -30 92 -12 42 19 47 57 43 391 l-3 309 -28 24 c-34 29 -76
31 -105 4z m78 -13 c0 -2 -7 -18 -16 -35 -13 -27 -15 -77 -12 -347 3 -327 1
-346 -36 -293 -14 19 -16 68 -16 331 0 193 4 316 10 328 7 12 21 19 40 19 17
0 30 -2 30 -3z"/>
<path d="M1996 4001 c-11 -17 -29 -158 -23 -175 7 -17 53 -22 76 -7 12 8 12
21 2 81 -15 95 -36 132 -55 101z m28 -118 c5 -35 3 -43 -9 -43 -16 0 -21 43
-9 75 8 21 10 18 18 -32z"/>
<path d="M2712 4298 c-15 -15 -17 -271 -2 -299 8 -14 21 -19 54 -19 65 0 102
38 111 114 13 100 -9 177 -56 202 -34 17 -91 18 -107 2z m83 -27 c3 -5 1 -12
-5 -16 -6 -4 -10 -57 -10 -131 0 -124 0 -125 -22 -122 -22 3 -23 6 -26 141
l-3 137 30 0 c16 0 32 -4 36 -9z"/>
<path d="M2659 2733 c0 -32 -1 -77 -2 -101 -2 -51 -2 -51 98 24 63 47 74 60
69 78 -14 45 -34 56 -101 56 l-63 0 -1 -57z"/>
<path d="M1695 1690 c-3 -5 -1 -10 4 -10 6 0 11 5 11 10 0 6 -2 10 -4 10 -3 0
-8 -4 -11 -10z"/>
<path d="M1840 1662 c0 -18 6 -22 28 -21 15 0 20 3 12 6 -8 3 -21 12 -27 21
-11 14 -13 13 -13 -6z"/>
<path d="M1710 1661 c0 -5 7 -12 16 -15 24 -9 27 -7 10 9 -17 17 -26 19 -26 6z"/>
<path d="M2028 1483 c7 -3 16 -2 19 1 4 3 -2 6 -13 5 -11 0 -14 -3 -6 -6z"/>
<path d="M2108 1403 c7 -3 16 -2 19 1 4 3 -2 6 -13 5 -11 0 -14 -3 -6 -6z"/>
<path d="M1530 1330 c0 -5 5 -10 10 -10 6 0 10 5 10 10 0 6 -4 10 -10 10 -5 0
-10 -4 -10 -10z"/>
<path d="M1850 1230 l-335 -5 338 -3 c219 -1 337 1 337 8 0 6 -1 9 -2 8 -2 -2
-154 -5 -338 -8z"/>
</g>
</svg>
